<svg width="319" height="319" viewBox="0 0 319 319" fill="none" xmlns="http://www.w3.org/2000/svg">
<path fill-rule="evenodd" clip-rule="evenodd" d="M152.813 2.7348C143.955 8.35027 141.596 14.2115 141.59 30.6243C141.587 38.588 141.314 45.1052 140.985 45.1052C140.656 45.1052 138.389 44.0532 135.944 42.7664C125.758 37.4045 112.102 41.4858 105.906 51.7445C102.955 56.6305 102.823 59.7552 102.818 125.337C102.815 163.008 102.289 193.785 101.649 193.731C101.008 193.678 96.4704 188.03 91.5619 181.181C78.8014 163.371 69.4931 158.567 55.4469 162.537C42.8415 166.099 32.8617 181.935 35.3958 194.351C36.7171 200.818 38.0493 202.827 74.0046 252.535C111.627 304.546 116.041 309.815 126.326 314.988C138.646 321.185 159.84 320.09 174.727 312.486L180.73 309.419L190.236 313.824C198.72 317.757 201.489 318.233 216.025 318.258C229.904 318.281 233.258 317.774 238.734 314.817C247.819 309.912 255.417 300.241 259.099 288.894C262.104 279.627 262.286 274.72 262.769 189.122C263.264 101.662 263.191 98.9461 260.201 93.8034C256.768 87.9015 248.39 82.6774 242.354 82.6774C240.175 82.6774 235.867 83.9768 232.78 85.5657L227.168 88.4541L226.636 66.8908C226.171 47.9638 225.708 44.789 222.861 40.9112C215.048 30.2736 204.57 27.044 193.299 31.7984C190.236 33.09 187.467 34.1467 187.145 34.1467C186.822 34.1467 186.558 29.541 186.558 23.9098C186.558 14.2021 186.251 13.3411 180.605 7.23093C175.302 1.49335 173.733 0.718427 166.259 0.159541C159.732 -0.328897 156.745 0.242513 152.813 2.7348ZM176.09 12.1999L180.355 16.9762V85.6315V154.287L172.988 155.192C168.938 155.689 161.608 156.566 156.704 157.139L147.787 158.182V90.1355C147.787 43.5679 148.341 20.4876 149.541 17.0122C153.496 5.55741 167.836 2.95867 176.09 12.1999ZM214.862 42.112L219.127 46.7208V103.228V159.736L213.311 158.568C210.113 157.927 203.308 156.968 198.19 156.438L188.885 155.473L188.477 101.008C188.199 63.8866 188.609 45.5232 189.763 43.3472C192.061 39.0107 200.276 35.6104 205.944 36.6499C208.503 37.1196 212.515 39.5774 214.862 42.112ZM133.48 49.808C136.273 51.5269 139.24 54.7409 140.071 56.9499C140.938 59.2527 141.583 82.225 141.583 110.833V160.701L133.848 163.295C125.599 166.061 123.262 168.132 125.659 170.552C126.607 171.509 131.32 170.637 138.657 168.151C164.463 159.406 199.271 159.379 224.961 168.085C238.26 172.592 239.288 172.689 239.288 169.447C239.288 168.054 236.596 165.84 233.1 164.359L226.912 161.735L226.896 130.696L226.881 99.6569L231.414 95.0809C237.914 88.5199 246.747 88.6216 252.332 95.322L256.347 100.137V186.575C256.347 280.243 255.989 284.883 247.783 297.457C242.951 304.865 232.385 311.102 222.712 312.257C214.415 313.25 199.648 310.7 191.794 306.921L186.805 304.517L202.577 286.906C230.716 255.486 239.41 234.948 231.704 218.094C226.484 206.675 217.931 201.365 204.877 201.435C196.16 201.484 189.389 204.734 184.716 211.113L181.267 215.821L177.573 211.055C172.501 204.514 166.051 201.485 157.039 201.415C146.932 201.336 138.848 205.562 133.083 213.934C129.031 219.82 128.42 222.053 128.539 230.539C128.778 247.577 138.514 264.395 163.162 290.343C170.059 297.604 175.702 303.818 175.702 304.15C175.702 305.527 158.831 310.95 151.359 311.974C139.743 313.565 128.558 309.893 120.33 301.789C113.831 295.386 48.7581 207.016 44.5583 198.89C37.5748 185.376 47.705 168.801 62.9547 168.787C72.7747 168.777 76.9481 172.364 92.967 194.583L108.24 215.769L109.015 137.091C109.847 52.6823 109.752 53.6138 117.972 49.1114C123.735 45.9537 127.492 46.1228 133.48 49.808ZM168.145 211.19C170.65 212.99 174.632 217.881 176.994 222.056L181.29 229.65L186.343 221.125C191.934 211.689 197.531 207.918 205.944 207.918C216.182 207.918 224.685 214.524 226.834 224.151C230.06 238.588 221.332 256.123 198.291 281.497C190.082 290.538 182.799 298.132 182.106 298.373C179.986 299.113 155.25 272.594 147.675 261.461C135.594 243.705 132.292 229.444 137.782 218.729C143.057 208.433 158.852 204.511 168.145 211.19Z" fill="white"/>
</svg>
