<svg width="50" height="24" viewBox="0 0 50 24" fill="none" xmlns="http://www.w3.org/2000/svg">
<path id="Arrow 3" d="M48.5 10.5C49.3284 10.5 50 11.1716 50 12C50 12.8284 49.3284 13.5 48.5 13.5V10.5ZM0.439339 13.0607C-0.146446 12.4749 -0.146446 11.5251 0.439339 10.9393L9.98528 1.3934C10.5711 0.807611 11.5208 0.807611 12.1066 1.3934C12.6924 1.97919 12.6924 2.92893 12.1066 3.51472L3.62132 12L12.1066 20.4853C12.6924 21.0711 12.6924 22.0208 12.1066 22.6066C11.5208 23.1924 10.5711 23.1924 9.98528 22.6066L0.439339 13.0607ZM48.5 13.5H1.5V10.5H48.5V13.5Z" fill="#1979FF"/>
</svg>
