<svg width="186" height="28" viewBox="0 0 186 28" fill="none" xmlns="http://www.w3.org/2000/svg">
<g id="prodoctorov-logo 1">
<path id="Vector" d="M10.4162 9.07277H3.31689V20.9498H0V6.03174H13.7331V20.9498H10.4162V9.07277Z" fill="#FF4A37"/>
<path id="Vector_2" d="M16.9608 6.03176H20.2777V7.667C20.9566 7.03586 21.684 6.54816 22.4599 6.20389C23.2357 5.85963 24.1086 5.6875 25.0785 5.6875C26.1647 5.6875 27.1637 5.88832 28.0754 6.28995C29.0064 6.67247 29.8016 7.21755 30.4611 7.92521C31.1206 8.61373 31.6347 9.43617 32.0033 10.3924C32.3718 11.3296 32.556 12.3528 32.556 13.462C32.556 14.6096 32.3524 15.6615 31.9451 16.6178C31.5571 17.555 31.0236 18.3678 30.3447 19.0564C29.6659 19.7257 28.8513 20.2517 27.9008 20.6343C26.9697 21.0167 25.9707 21.208 24.9039 21.208C23.9534 21.208 23.1 21.0646 22.3435 20.7777C21.587 20.4907 20.8984 20.0891 20.2777 19.5728V26.6875H16.9608V6.03176ZM24.4093 18.167C25.0688 18.167 25.6798 18.0618 26.2423 17.8514C26.8242 17.6411 27.3285 17.3351 27.7553 16.9334C28.182 16.5127 28.5118 16.0154 28.7445 15.4416C28.9967 14.8487 29.1228 14.1793 29.1228 13.4334C29.1228 12.7449 29.0161 12.1138 28.8027 11.5399C28.5894 10.947 28.279 10.4498 27.8717 10.0481C27.4837 9.62736 27.0182 9.30221 26.4751 9.07279C25.9319 8.84328 25.3306 8.72848 24.6711 8.72848C23.6625 8.72848 22.7702 8.96753 21.9943 9.44571C21.2378 9.92381 20.6657 10.4976 20.2777 11.167V15.6998C20.6657 16.5031 21.2184 17.1151 21.9361 17.5359C22.6538 17.9567 23.4782 18.167 24.4093 18.167Z" fill="#FF4A37"/>
<path id="Vector_3" d="M34.2794 13.462C34.2794 12.3337 34.4734 11.3009 34.8614 10.3638C35.2493 9.40748 35.8022 8.58504 36.5199 7.89652C37.2376 7.20799 38.091 6.67247 39.0803 6.28996C40.0695 5.88832 41.1654 5.6875 42.3681 5.6875C43.5513 5.6875 44.6375 5.88832 45.6268 6.28996C46.6354 6.67247 47.4986 7.20799 48.2162 7.89652C48.9339 8.58504 49.4868 9.40748 49.8747 10.3638C50.2821 11.3009 50.4857 12.3337 50.4857 13.462C50.4857 14.5905 50.2821 15.6328 49.8747 16.5891C49.4868 17.5263 48.9339 18.3391 48.2162 19.0277C47.4986 19.7162 46.6354 20.2517 45.6268 20.6343C44.6375 21.0167 43.5513 21.208 42.3681 21.208C41.1848 21.208 40.0986 21.0167 39.1093 20.6343C38.1201 20.2517 37.2666 19.7162 36.5489 19.0277C35.8312 18.3391 35.2687 17.5263 34.8614 16.5891C34.4734 15.6328 34.2794 14.5905 34.2794 13.462ZM37.7127 13.462C37.7127 14.1315 37.8195 14.7531 38.0328 15.3268C38.2656 15.9006 38.5856 16.3979 38.993 16.8186C39.4003 17.2394 39.8852 17.5741 40.4477 17.8228C41.0297 18.0522 41.6698 18.167 42.3681 18.167C43.0664 18.167 43.6967 18.0618 44.2592 17.8514C44.8411 17.6219 45.3358 17.3064 45.7432 16.9047C46.1505 16.484 46.4705 15.9867 46.7033 15.413C46.936 14.8391 47.0524 14.1888 47.0524 13.462C47.0524 12.7353 46.9264 12.0851 46.6742 11.5112C46.4415 10.9183 46.1117 10.4211 45.685 10.0195C45.2582 9.59866 44.7636 9.28314 44.201 9.07279C43.6385 8.84328 43.0276 8.72848 42.3681 8.72848C41.7086 8.72848 41.0878 8.84328 40.5059 9.07279C39.9434 9.28314 39.4488 9.59866 39.0221 10.0195C38.6148 10.4211 38.2947 10.9183 38.0619 11.5112C37.8291 12.0851 37.7127 12.7353 37.7127 13.462Z" fill="#FF4A37"/>
<path id="Vector_4" d="M51.3714 17.9088H53.123C53.8042 17.0481 54.2616 16.0631 54.4952 14.9539C54.7287 13.8446 54.8455 12.5918 54.8455 11.1957V6.03174H67.0484V17.9088H69.1795V24.3637H66.085V20.9498H54.4659V24.3637H51.3714V17.9088ZM63.7203 17.9088V9.07277H57.9983V12.8883C57.9983 13.8063 57.8719 14.7244 57.6188 15.6424C57.3659 16.5413 57.0156 17.2968 56.5679 17.9088H63.7203Z" fill="#3981F1"/>
<path id="Vector_5" d="M69.8549 13.462C69.8549 12.3337 70.0495 11.3009 70.4387 10.3638C70.8279 9.40748 71.3826 8.58504 72.1027 7.89652C72.8228 7.20799 73.6792 6.67247 74.6717 6.28996C75.6644 5.88832 76.764 5.6875 77.9707 5.6875C79.1578 5.6875 80.2477 5.88832 81.2403 6.28996C82.2524 6.67247 83.1184 7.20799 83.8385 7.89652C84.5586 8.58504 85.1133 9.40748 85.5025 10.3638C85.9113 11.3009 86.1156 12.3337 86.1156 13.462C86.1156 14.5905 85.9113 15.6328 85.5025 16.5891C85.1133 17.5263 84.5586 18.3391 83.8385 19.0277C83.1184 19.7162 82.2524 20.2517 81.2403 20.6343C80.2477 21.0167 79.1578 21.208 77.9707 21.208C76.7835 21.208 75.6935 21.0167 74.701 20.6343C73.7083 20.2517 72.852 19.7162 72.1319 19.0277C71.4118 18.3391 70.8474 17.5263 70.4387 16.5891C70.0495 15.6328 69.8549 14.5905 69.8549 13.462ZM73.2997 13.462C73.2997 14.1315 73.4067 14.7531 73.6207 15.3268C73.8543 15.9006 74.1755 16.3979 74.5841 16.8186C74.9929 17.2394 75.4794 17.5741 76.0439 17.8228C76.6277 18.0522 77.27 18.167 77.9707 18.167C78.6713 18.167 79.3038 18.0618 79.8682 17.8514C80.4521 17.6219 80.9483 17.3064 81.3571 16.9047C81.7658 16.484 82.0869 15.9867 82.3205 15.413C82.554 14.8391 82.6708 14.1888 82.6708 13.462C82.6708 12.7353 82.5443 12.0851 82.2913 11.5112C82.0577 10.9183 81.7269 10.4211 81.2987 10.0195C80.8705 9.59866 80.3742 9.28314 79.8099 9.07279C79.2454 8.84328 78.6324 8.72848 77.9707 8.72848C77.309 8.72848 76.6861 8.84328 76.1022 9.07279C75.5379 9.28314 75.0415 9.59866 74.6134 10.0195C74.2047 10.4211 73.8835 10.9183 73.65 11.5112C73.4164 12.0851 73.2997 12.7353 73.2997 13.462Z" fill="#3981F1"/>
<path id="Vector_6" d="M88.1752 6.03174H91.5031V12.085L98.0716 6.03174H102.421L95.0354 12.7736L102.684 20.9498H98.4223L92.6129 14.8104L91.5031 15.8719V20.9498H88.1752V6.03174Z" fill="#3981F1"/>
<path id="Vector_7" d="M103.735 6.03174H118.04V9.07277H112.551V20.9498H109.224V9.07277H103.735V6.03174Z" fill="#3981F1"/>
<path id="Vector_8" d="M118.767 13.462C118.767 12.3337 118.962 11.3009 119.352 10.3638C119.741 9.40748 120.295 8.58504 121.015 7.89652C121.735 7.20799 122.592 6.67247 123.585 6.28996C124.577 5.88832 125.677 5.6875 126.883 5.6875C128.071 5.6875 129.16 5.88832 130.153 6.28996C131.165 6.67247 132.031 7.20799 132.751 7.89652C133.471 8.58504 134.026 9.40748 134.415 10.3638C134.824 11.3009 135.028 12.3337 135.028 13.462C135.028 14.5905 134.824 15.6328 134.415 16.5891C134.026 17.5263 133.471 18.3391 132.751 19.0277C132.031 19.7162 131.165 20.2517 130.153 20.6343C129.16 21.0167 128.071 21.208 126.883 21.208C125.696 21.208 124.606 21.0167 123.614 20.6343C122.621 20.2517 121.764 19.7162 121.044 19.0277C120.324 18.3391 119.76 17.5263 119.352 16.5891C118.962 15.6328 118.767 14.5905 118.767 13.462ZM122.213 13.462C122.213 14.1315 122.32 14.7531 122.533 15.3268C122.767 15.9006 123.088 16.3979 123.497 16.8186C123.905 17.2394 124.392 17.5741 124.957 17.8228C125.54 18.0522 126.182 18.167 126.883 18.167C127.584 18.167 128.217 18.0618 128.781 17.8514C129.365 17.6219 129.861 17.3064 130.27 16.9047C130.678 16.484 131 15.9867 131.233 15.413C131.467 14.8391 131.583 14.1888 131.583 13.462C131.583 12.7353 131.457 12.0851 131.204 11.5112C130.971 10.9183 130.639 10.4211 130.212 10.0195C129.783 9.59866 129.287 9.28314 128.723 9.07279C128.158 8.84328 127.545 8.72848 126.883 8.72848C126.221 8.72848 125.599 8.84328 125.015 9.07279C124.451 9.28314 123.954 9.59866 123.526 10.0195C123.117 10.4211 122.796 10.9183 122.562 11.5112C122.33 12.0851 122.213 12.7353 122.213 13.462Z" fill="#3981F1"/>
<path id="Vector_9" d="M137.062 6.03176H140.389V7.667C141.07 7.03586 141.8 6.54816 142.579 6.20389C143.357 5.85963 144.233 5.6875 145.207 5.6875C146.296 5.6875 147.299 5.88832 148.214 6.28995C149.147 6.67247 149.945 7.21755 150.607 7.92521C151.268 8.61373 151.785 9.43617 152.154 10.3924C152.524 11.3296 152.709 12.3528 152.709 13.462C152.709 14.6096 152.505 15.6615 152.096 16.6178C151.707 17.555 151.172 18.3678 150.49 19.0564C149.809 19.7257 148.991 20.2517 148.038 20.6343C147.104 21.0167 146.101 21.208 145.031 21.208C144.077 21.208 143.221 21.0646 142.462 20.7777C141.703 20.4907 141.012 20.0891 140.389 19.5728V26.6875H137.062V6.03176ZM144.535 18.167C145.197 18.167 145.81 18.0618 146.374 17.8514C146.958 17.6411 147.464 17.3351 147.892 16.9334C148.32 16.5127 148.651 16.0154 148.885 15.4416C149.137 14.8487 149.264 14.1793 149.264 13.4334C149.264 12.7449 149.157 12.1138 148.943 11.5399C148.729 10.947 148.417 10.4498 148.009 10.0481C147.619 9.62736 147.153 9.30221 146.608 9.07279C146.062 8.84328 145.459 8.72848 144.797 8.72848C143.786 8.72848 142.891 8.96753 142.112 9.44571C141.353 9.92381 140.779 10.4976 140.389 11.167V15.6998C140.779 16.5031 141.333 17.1151 142.054 17.5359C142.774 17.9567 143.601 18.167 144.535 18.167Z" fill="#3981F1"/>
<path id="Vector_10" d="M154.36 13.462C154.36 12.3337 154.554 11.3009 154.943 10.3638C155.333 9.40748 155.887 8.58504 156.608 7.89652C157.328 7.20799 158.184 6.67247 159.176 6.28996C160.169 5.88832 161.269 5.6875 162.475 5.6875C163.662 5.6875 164.753 5.88832 165.745 6.28996C166.757 6.67247 167.623 7.20799 168.343 7.89652C169.063 8.58504 169.618 9.40748 170.008 10.3638C170.416 11.3009 170.62 12.3337 170.62 13.462C170.62 14.5905 170.416 15.6328 170.008 16.5891C169.618 17.5263 169.063 18.3391 168.343 19.0277C167.623 19.7162 166.757 20.2517 165.745 20.6343C164.753 21.0167 163.662 21.208 162.475 21.208C161.289 21.208 160.198 21.0167 159.205 20.6343C158.213 20.2517 157.357 19.7162 156.637 19.0277C155.917 18.3391 155.353 17.5263 154.943 16.5891C154.554 15.6328 154.36 14.5905 154.36 13.462ZM157.804 13.462C157.804 14.1315 157.911 14.7531 158.126 15.3268C158.36 15.9006 158.68 16.3979 159.089 16.8186C159.498 17.2394 159.984 17.5741 160.549 17.8228C161.133 18.0522 161.775 18.167 162.475 18.167C163.176 18.167 163.808 18.0618 164.373 17.8514C164.957 17.6219 165.453 17.3064 165.862 16.9047C166.271 16.484 166.591 15.9867 166.825 15.413C167.059 14.8391 167.176 14.1888 167.176 13.462C167.176 12.7353 167.049 12.0851 166.796 11.5112C166.562 10.9183 166.232 10.4211 165.803 10.0195C165.375 9.59866 164.879 9.28314 164.314 9.07279C163.75 8.84328 163.137 8.72848 162.475 8.72848C161.814 8.72848 161.191 8.84328 160.607 9.07279C160.042 9.28314 159.546 9.59866 159.119 10.0195C158.709 10.4211 158.389 10.9183 158.155 11.5112C157.921 12.0851 157.804 12.7353 157.804 13.462Z" fill="#3981F1"/>
<path id="Vector_11" d="M172.688 6.03174H179.168C181.29 6.03174 182.886 6.32819 183.957 6.92109C185.027 7.51398 185.562 8.5372 185.562 9.99073C185.562 10.6793 185.407 11.2626 185.095 11.7407C184.784 12.2189 184.375 12.6492 183.869 13.0317C184.589 13.2995 185.124 13.7489 185.475 14.3801C185.825 14.9921 186 15.6998 186 16.5031C186 17.9949 185.465 19.1137 184.394 19.8596C183.324 20.5864 181.816 20.9498 179.869 20.9498H172.688V6.03174ZM176.016 14.7817V17.9949H179.548C180.54 17.9949 181.29 17.8705 181.796 17.6219C182.302 17.3733 182.555 16.9717 182.555 16.417C182.555 15.8241 182.312 15.4033 181.826 15.1547C181.358 14.906 180.628 14.7817 179.636 14.7817H176.016ZM176.016 8.98667V11.9415H179.928C180.609 11.9415 181.145 11.8173 181.533 11.5686C181.923 11.32 182.117 10.9375 182.117 10.4211C182.117 9.80908 181.855 9.41699 181.329 9.24488C180.823 9.07277 180.074 8.98667 179.081 8.98667H176.016Z" fill="#3981F1"/>
</g>
</svg>
