<svg width="37" height="22" viewBox="0 0 37 22" fill="none" xmlns="http://www.w3.org/2000/svg">
<g id="Group 2">
<path id="Subtract" fill-rule="evenodd" clip-rule="evenodd" d="M18.4599 22C26.8249 22 33.9273 15.0098 36.4644 12.1741C37.0717 11.4953 37.0717 10.5047 36.4644 9.8259C33.9273 6.99018 26.8249 0 18.4599 0C10.095 0 2.99257 6.99018 0.455482 9.8259C-0.151826 10.5047 -0.151828 11.4953 0.45548 12.1741C2.99257 15.0098 10.095 22 18.4599 22ZM18.5959 20.5C23.8426 20.5 28.0959 16.2467 28.0959 11C28.0959 5.75329 23.8426 1.5 18.5959 1.5C13.3492 1.5 9.09593 5.75329 9.09593 11C9.09593 16.2467 13.3492 20.5 18.5959 20.5Z" fill="#1979FF"/>
<circle id="Ellipse 3" cx="17.0959" cy="8.5" r="3" fill="#1979FF"/>
</g>
</svg>
